<svg xmlns="http://www.w3.org/2000/svg" width="171.019" height="107.299" viewBox="0 0 171.019 107.299">
  <g id="black-graduation-cap-tool-of-university-student-for-head" transform="translate(0 -5.96)">
    <g id="Group_112" data-name="Group 112" transform="translate(0 5.96)">
      <path id="Path_166" data-name="Path 166" d="M6.952,28.036v26.8s25.7-10.707,48.491-10.707,48.5,10.707,48.5,10.707V27.662S79.418,14.693,55.063,14.693,6.952,28.036,6.952,28.036Z" transform="translate(30.211 31.991)" fill="#fff"/>
      <path id="Path_167" data-name="Path 167" d="M161.376,59.6l9.644-5.185-9.644-5.34V46.544s2.716-13.77-12.717-6.57a2.841,2.841,0,0,0-1.379,1.283L83.633,5.96,0,53.825,31.582,68.173V63.517s26.5-14.877,53.66-14.877S139.731,63.1,139.731,63.1v8.131l17.438-9.366V99.782h-5.805v13.476l7.719-5.335,8.569,5.335V99.777h-6.276V59.6Zm-4.212-15.4v2.539l-5.089-2.823C153.929,42.69,157.163,40.985,157.163,44.2Zm-1.721,14.872A4.076,4.076,0,1,1,159.521,55,4.081,4.081,0,0,1,155.442,59.075Z" transform="translate(0 -5.96)" fill="#fff"/>
    </g>
  </g>
</svg>
