<svg xmlns="http://www.w3.org/2000/svg" width="20.479" height="20.479" viewBox="0 0 20.479 20.479">
  <path id="Icon_material-call" data-name="Icon material-call" d="M8.618,13.363a17.235,17.235,0,0,0,7.5,7.5l2.5-2.5a1.131,1.131,0,0,1,1.16-.273,12.978,12.978,0,0,0,4.062.648,1.141,1.141,0,0,1,1.138,1.138v3.971a1.141,1.141,0,0,1-1.138,1.138A19.339,19.339,0,0,1,4.5,5.638,1.141,1.141,0,0,1,5.638,4.5H9.62a1.141,1.141,0,0,1,1.138,1.138A12.925,12.925,0,0,0,11.406,9.7a1.142,1.142,0,0,1-.284,1.16l-2.5,2.5Z" transform="translate(-4.5 -4.5)"/>
</svg>
