<svg xmlns="http://www.w3.org/2000/svg" width="25.137" height="25.131" viewBox="0 0 25.137 25.131">
  <path id="Icon_ionic-ios-globe" data-name="Icon ionic-ios-globe" d="M15.94,3.375H15.9A12.565,12.565,0,0,0,15.9,28.506h.042A12.565,12.565,0,1,0,15.94,3.375Zm10.886,11.72H22.138a23.79,23.79,0,0,0-.592-4.6,18.4,18.4,0,0,0,3-1.269A10.823,10.823,0,0,1,26.826,15.095Zm-11.732,0H11.361a21.472,21.472,0,0,1,.532-4.174,18.379,18.379,0,0,0,3.2.429Zm0,1.691v3.739a18.457,18.457,0,0,0-3.2.429,21.47,21.47,0,0,1-.532-4.168Zm1.691,0h3.7a21.346,21.346,0,0,1-.532,4.162,18.032,18.032,0,0,0-3.172-.423Zm0-1.691V11.349a18.457,18.457,0,0,0,3.172-.423,21.409,21.409,0,0,1,.532,4.168Zm6.609-7.122a16.782,16.782,0,0,1-2.3.936,12.473,12.473,0,0,0-1.6-3.292A10.932,10.932,0,0,1,23.395,7.972ZM19.5,9.344a17,17,0,0,1-2.718.362V5.272C17.813,5.828,18.816,7.32,19.5,9.344Zm-4.41-4.1V9.7a16.708,16.708,0,0,1-2.749-.369C13.047,7.29,14.062,5.8,15.095,5.248Zm-2.755.387A12.572,12.572,0,0,0,10.751,8.9a17.16,17.16,0,0,1-2.265-.93A10.768,10.768,0,0,1,12.34,5.634ZM7.332,9.229A18.039,18.039,0,0,0,10.3,10.485a22.831,22.831,0,0,0-.592,4.6H5.06A10.767,10.767,0,0,1,7.332,9.229ZM5.054,16.786H9.706a23.729,23.729,0,0,0,.592,4.6,19.139,19.139,0,0,0-2.972,1.257A10.824,10.824,0,0,1,5.054,16.786ZM8.48,23.908a16.907,16.907,0,0,1,2.271-.93,12.616,12.616,0,0,0,1.589,3.274A11.036,11.036,0,0,1,8.48,23.908Zm3.866-1.365a16.8,16.8,0,0,1,2.749-.369v4.458C14.056,26.083,13.047,24.585,12.346,22.543Zm4.44,4.066v-4.44a17,17,0,0,1,2.718.362C18.816,24.561,17.813,26.053,16.786,26.609Zm2.718-.344a12.473,12.473,0,0,0,1.6-3.292,16.506,16.506,0,0,1,2.3.942A11.057,11.057,0,0,1,19.5,26.264Zm5.044-3.613a18.4,18.4,0,0,0-3-1.269,23.666,23.666,0,0,0,.592-4.6h4.688A10.776,10.776,0,0,1,24.549,22.652Z" transform="translate(-3.375 -3.375)"/>
</svg>
