<svg xmlns="http://www.w3.org/2000/svg" width="23.698" height="25.014" viewBox="0 0 23.698 25.014">
  <path id="Icon_material-location-city" data-name="Icon material-location-city" d="M20.3,14.849V6.95L16.349,3,12.4,6.95V9.583H4.5V28.014H28.2V14.849ZM9.766,25.381H7.133V22.748H9.766Zm0-5.266H7.133V17.482H9.766Zm0-5.266H7.133V12.216H9.766Zm7.9,10.532H15.032V22.748h2.633Zm0-5.266H15.032V17.482h2.633Zm0-5.266H15.032V12.216h2.633Zm0-5.266H15.032V6.95h2.633Zm7.9,15.8H22.931V22.748h2.633Zm0-5.266H22.931V17.482h2.633Z" transform="translate(-4.5 -3)"/>
</svg>
