<svg xmlns="http://www.w3.org/2000/svg" width="22.896" height="26.167" viewBox="0 0 22.896 26.167">
  <path id="Icon_awesome-calendar-alt" data-name="Icon awesome-calendar-alt" d="M0,23.714a2.454,2.454,0,0,0,2.453,2.453h17.99A2.454,2.454,0,0,0,22.9,23.714V9.813H0ZM16.355,13.7a.615.615,0,0,1,.613-.613h2.044a.615.615,0,0,1,.613.613v2.044a.615.615,0,0,1-.613.613H16.968a.615.615,0,0,1-.613-.613Zm0,6.542a.615.615,0,0,1,.613-.613h2.044a.615.615,0,0,1,.613.613v2.044a.615.615,0,0,1-.613.613H16.968a.615.615,0,0,1-.613-.613ZM9.813,13.7a.615.615,0,0,1,.613-.613H12.47a.615.615,0,0,1,.613.613v2.044a.615.615,0,0,1-.613.613H10.426a.615.615,0,0,1-.613-.613Zm0,6.542a.615.615,0,0,1,.613-.613H12.47a.615.615,0,0,1,.613.613v2.044a.615.615,0,0,1-.613.613H10.426a.615.615,0,0,1-.613-.613ZM3.271,13.7a.615.615,0,0,1,.613-.613H5.929a.615.615,0,0,1,.613.613v2.044a.615.615,0,0,1-.613.613H3.884a.615.615,0,0,1-.613-.613Zm0,6.542a.615.615,0,0,1,.613-.613H5.929a.615.615,0,0,1,.613.613v2.044a.615.615,0,0,1-.613.613H3.884a.615.615,0,0,1-.613-.613ZM20.443,3.271H17.99V.818A.82.82,0,0,0,17.172,0H15.537a.82.82,0,0,0-.818.818V3.271H8.177V.818A.82.82,0,0,0,7.36,0H5.724a.82.82,0,0,0-.818.818V3.271H2.453A2.454,2.454,0,0,0,0,5.724V8.177H22.9V5.724A2.454,2.454,0,0,0,20.443,3.271Z"/>
</svg>
