<svg xmlns="http://www.w3.org/2000/svg" width="122" height="107.227" viewBox="0 0 122 107.227">
  <g id="portfolio_2_" data-name="portfolio (2)" transform="translate(0)">
    <path id="Path_168" data-name="Path 168" d="M211,240h21.445v7.148H211Zm0,0" transform="translate(-160.722 -182.812)"/>
    <path id="Path_169" data-name="Path 169" d="M98.977,123.3H78.871v3.574a3.573,3.573,0,0,1-3.574,3.574H46.7a3.573,3.573,0,0,1-3.574-3.574V123.3H23.023a10.711,10.711,0,0,1-10.172-7.33L0,77.41v78.059a10.735,10.735,0,0,0,10.723,10.723H111.278A10.735,10.735,0,0,0,122,155.469V77.413l-12.852,38.558a10.709,10.709,0,0,1-10.171,7.33Zm0,0" transform="translate(0 -58.965)"/>
    <path id="Path_170" data-name="Path 170" d="M94.956,0H66.362A10.735,10.735,0,0,0,55.64,10.723V14.3H25.809L39.29,54.744a3.573,3.573,0,0,0,3.393,2.443H62.788V53.613a3.573,3.573,0,0,1,3.574-3.574H94.956a3.573,3.573,0,0,1,3.574,3.574v3.574h20.106a3.573,3.573,0,0,0,3.393-2.443L135.511,14.3H105.679V10.723A10.735,10.735,0,0,0,94.956,0ZM62.788,14.3V10.723a3.576,3.576,0,0,1,3.574-3.574H94.956a3.576,3.576,0,0,1,3.574,3.574V14.3Zm0,0" transform="translate(-19.659)"/>
  </g>
</svg>
